<svg width="1080" height="1920" viewBox="0 0 1080 1920" fill="none" xmlns="http://www.w3.org/2000/svg">
<g clip-path="url(#clip0_34_205)">
<path d="M883.636 1701.71L883.636 317.499L857.983 222.907C854.563 211.669 846.867 192.001 824.635 192.001L255.146 192.001C233.769 192.001 225.218 212.605 222.653 222.907L197 317.499L197 1706.4C197 1723.25 213.247 1727 232.914 1727H846.867C872.52 1727 883.636 1715.76 883.636 1701.71Z" fill="#282828" stroke="black" stroke-width="112.044"/>
<path d="M846.667 365.762L846.662 365.79L846.659 365.817C844.268 383.273 829.967 396.176 813.52 396.176L264.553 396.176C249.782 396.176 236.366 385.11 233.98 367.691L233.976 367.658L233.97 367.625L210.887 224.358C210.886 224.354 210.886 224.35 210.885 224.346C209.773 217.005 212.918 209.643 218.274 203.995C223.655 198.319 230.872 194.801 237.191 194.801L843.448 194.801C849.935 194.801 857.136 197.755 862.298 202.982C867.394 208.143 870.446 215.448 868.906 224.299L868.902 224.322L868.899 224.344L846.667 365.762ZM219.853 413.025L219.853 1675.06L199.802 1601.13L199.803 250.603L213.904 333.869C218.15 359.912 219.853 386.917 219.853 413.025ZM866.733 333.877C866.734 333.875 866.734 333.872 866.735 333.869L880.836 250.603L880.836 1601.13L860.786 1675.06L860.786 413.025C860.786 386.92 862.488 359.918 866.733 333.877ZM824.636 1724.2L256.002 1724.2C244.83 1724.2 234.861 1714.32 234.861 1701.71L234.861 439.248C234.861 424.629 245.813 413.016 258.568 413.016L822.071 413.016C834.826 413.016 845.778 424.629 845.778 439.248L845.777 1701.71C845.777 1714.39 836.6 1724.2 824.636 1724.2Z" fill="#FABD2D" stroke="black" stroke-width="5.60219"/>
<path d="M543.145 982.677H509.419C505.916 982.677 503.361 981.874 501.755 980.268C500.149 978.662 499.346 976.107 499.346 972.603V946.105H464.525C449.487 946.105 438.683 941.871 432.113 933.403C425.689 924.935 422.478 914.131 422.478 900.991V830.693C422.478 828.795 422.697 827.189 423.135 825.875C423.719 824.561 424.522 823.466 425.543 822.59L453.794 798.719C454.524 798.135 455.473 797.697 456.641 797.405C457.955 796.967 459.342 796.748 460.802 796.748H494.747C498.251 796.748 500.806 797.551 502.412 799.157C504.018 800.763 504.821 803.318 504.821 806.822V820.619L530.662 798.719C531.392 798.135 532.341 797.697 533.509 797.405C534.823 796.967 536.21 796.748 537.67 796.748H571.396C574.9 796.748 577.455 797.551 579.061 799.157C580.667 800.763 581.47 803.318 581.47 806.822V948.733C581.47 950.631 581.178 952.237 580.594 953.55C580.156 954.864 579.426 955.959 578.404 956.835L549.934 980.487C549.35 981.071 548.401 981.582 547.087 982.02C545.919 982.458 544.605 982.677 543.145 982.677ZM529.786 920.044V948.733C529.786 951.507 530.37 953.55 531.538 954.864C532.852 956.032 534.896 956.616 537.67 956.616H571.396C574.17 956.616 576.141 956.032 577.309 954.864C578.623 953.55 579.28 951.507 579.28 948.733V806.822C579.28 804.048 578.623 802.077 577.309 800.909C576.141 799.595 574.17 798.938 571.396 798.938H537.67C534.896 798.938 532.852 799.595 531.538 800.909C530.37 802.077 529.786 804.048 529.786 806.822V874.273H509.419C507.376 874.273 505.697 873.616 504.383 872.302C503.215 870.988 502.631 869.163 502.631 866.828V806.822C502.631 804.048 501.974 802.077 500.66 800.909C499.492 799.595 497.521 798.938 494.747 798.938H460.802C458.028 798.938 455.984 799.595 454.67 800.909C453.502 802.077 452.918 804.048 452.918 806.822V883.69C452.918 896.1 455.984 905.298 462.116 911.284C468.394 917.124 478.614 920.044 492.776 920.044H529.786ZM553.438 936.907V898.144H501.098C492.776 898.144 486.644 896.246 482.702 892.45C478.76 888.508 476.789 882.741 476.789 875.149V818.648H478.979V875.149C478.979 882.157 480.804 887.413 484.454 890.917C488.104 894.275 493.652 895.954 501.098 895.954H553.438V818.648H555.628V936.907H553.438ZM421.48 1199.91H419.29V1081.65H421.48V1139.9H469.003L494.187 1081.65H496.596L471.411 1139.9H480.39C489.296 1139.9 495.939 1141.58 500.319 1144.94C504.699 1148.3 506.889 1153.77 506.889 1161.36V1199.91H504.699V1161.36C504.699 1154.36 502.655 1149.39 498.567 1146.47C494.479 1143.55 488.42 1142.09 480.39 1142.09H421.48V1199.91ZM437.248 1219.62C440.022 1219.62 441.993 1219.03 443.161 1217.86C444.475 1216.55 445.132 1214.51 445.132 1211.73V1161.58H474.039C476.375 1161.58 478.127 1162.24 479.295 1163.55C480.463 1164.87 481.047 1166.69 481.047 1169.03V1211.73C481.047 1214.51 481.631 1216.55 482.799 1217.86C484.113 1219.03 486.157 1219.62 488.931 1219.62H522.657C525.431 1219.62 527.402 1219.03 528.57 1217.86C529.884 1216.55 530.541 1214.51 530.541 1211.73V1149.98C530.541 1141.22 528.059 1134.21 523.095 1128.95C518.277 1123.55 511.78 1120.63 503.604 1120.19L525.942 1069.17C526.964 1066.83 527.037 1065.08 526.161 1063.91C525.285 1062.6 523.606 1061.94 521.124 1061.94H487.398C484.624 1061.94 482.361 1062.52 480.609 1063.69C478.857 1064.71 477.47 1066.54 476.448 1069.17L453.892 1120.19H445.132V1069.82C445.132 1067.05 444.475 1065.08 443.161 1063.91C441.993 1062.6 440.022 1061.94 437.248 1061.94H403.303C400.529 1061.94 398.485 1062.6 397.171 1063.91C396.003 1065.08 395.419 1067.05 395.419 1069.82V1211.73C395.419 1214.51 396.003 1216.55 397.171 1217.86C398.485 1219.03 400.529 1219.62 403.303 1219.62H437.248ZM444.256 1219.84L415.786 1243.49C415.202 1244.07 414.253 1244.58 412.939 1245.02C411.771 1245.46 410.457 1245.68 408.997 1245.68H375.053C371.549 1245.68 368.994 1244.87 367.388 1243.27C365.782 1241.66 364.979 1239.11 364.979 1235.6V1093.69C364.979 1091.79 365.198 1090.19 365.636 1088.88C366.22 1087.56 367.023 1086.47 368.045 1085.59L396.295 1061.72C397.025 1061.14 397.974 1060.7 399.142 1060.41C400.456 1059.97 401.843 1059.75 403.303 1059.75H437.248C440.752 1059.75 443.307 1060.55 444.913 1062.16C446.519 1063.76 447.322 1066.32 447.322 1069.82V1089.75C447.76 1089.17 448.198 1088.58 448.636 1088C449.074 1087.27 449.585 1086.69 450.169 1086.25L478.419 1062.38C479.441 1061.5 480.682 1060.84 482.142 1060.41C483.748 1059.97 485.5 1059.75 487.398 1059.75H521.124C524.774 1059.75 527.183 1060.7 528.351 1062.6C529.519 1064.35 529.373 1066.83 527.913 1070.04L506.889 1118.22C514.773 1119.24 521.051 1122.6 525.723 1128.29C530.395 1133.99 532.731 1141.22 532.731 1149.98V1211.73C532.731 1213.63 532.439 1215.24 531.855 1216.55C531.417 1217.86 530.687 1218.96 529.665 1219.84L501.195 1243.49C500.611 1244.07 499.662 1244.58 498.348 1245.02C497.18 1245.46 495.866 1245.68 494.406 1245.68H460.681C457.177 1245.68 454.622 1244.87 453.016 1243.27C451.41 1241.66 450.607 1239.11 450.607 1235.6V1192.9C450.607 1191.44 450.315 1190.27 449.731 1189.39C449.147 1188.52 448.344 1188.01 447.322 1187.86V1211.73C447.322 1213.63 447.03 1215.24 446.446 1216.55C446.008 1217.86 445.278 1218.96 444.256 1219.84ZM560.259 1245.68C556.755 1245.68 554.2 1244.87 552.594 1243.27C550.989 1241.66 550.186 1239.11 550.186 1235.6V1093.69C550.186 1091.79 550.405 1090.19 550.843 1088.88C551.426 1087.56 552.229 1086.47 553.251 1085.59L581.502 1061.72C582.232 1061.14 583.181 1060.7 584.349 1060.41C585.663 1059.97 587.05 1059.75 588.51 1059.75H658.37C673.554 1059.75 684.723 1062.74 691.877 1068.73C699.031 1074.57 702.608 1083.47 702.608 1095.44V1105.96C702.608 1111.07 701.878 1115.45 700.418 1119.1C699.104 1122.75 697.06 1125.67 694.286 1127.86L693.629 1128.29C701.513 1130.05 707.426 1133.84 711.368 1139.68C715.31 1145.38 717.281 1153.33 717.281 1163.55V1183.7C717.281 1190.27 716.332 1195.96 714.434 1200.78C712.536 1205.45 709.689 1209.4 705.893 1212.61L677.642 1236.48C673.992 1239.55 669.393 1241.81 663.845 1243.27C658.297 1244.87 651.8 1245.68 644.354 1245.68H560.259ZM672.605 1219.62C687.059 1219.62 697.717 1216.7 704.579 1210.86C711.587 1205.02 715.091 1195.96 715.091 1183.7V1163.55C715.091 1152.9 712.828 1144.79 708.302 1139.24C703.776 1133.7 696.841 1130.48 687.497 1129.61C691.877 1127.71 695.089 1124.86 697.133 1121.07C699.323 1117.13 700.418 1112.09 700.418 1105.96V1095.44C700.418 1084.06 696.987 1075.66 690.125 1070.26C683.263 1064.71 672.678 1061.94 658.37 1061.94H588.51C585.736 1061.94 583.692 1062.6 582.378 1063.91C581.21 1065.08 580.626 1067.05 580.626 1069.82V1211.73C580.626 1214.51 581.21 1216.55 582.378 1217.86C583.692 1219.03 585.736 1219.62 588.51 1219.62H672.605ZM663.845 1199.91H604.935V1081.65H649.391C655.377 1081.65 660.268 1082.31 664.064 1083.62C667.86 1084.79 670.78 1086.47 672.824 1088.66C674.868 1090.7 676.255 1093.11 676.985 1095.88C677.715 1098.66 678.08 1101.65 678.08 1104.86V1118.88C678.08 1123.26 677.277 1127.27 675.671 1130.92C674.211 1134.57 670.342 1137.2 664.064 1138.81C670.05 1138.81 674.941 1139.46 678.737 1140.78C682.533 1141.95 685.453 1143.7 687.497 1146.03C689.541 1148.22 690.855 1150.85 691.439 1153.92C692.169 1156.98 692.534 1160.34 692.534 1163.99V1178.01C692.534 1181.22 692.169 1184.21 691.439 1186.99C690.709 1189.61 689.322 1191.88 687.278 1193.77C685.38 1195.67 682.533 1197.21 678.737 1198.37C674.941 1199.4 669.977 1199.91 663.845 1199.91ZM649.391 1083.84H607.125V1138.81H649.391C655.377 1138.81 660.122 1138.3 663.626 1137.27C667.13 1136.11 669.758 1134.65 671.51 1132.89C673.408 1131 674.576 1128.88 675.014 1126.54C675.598 1124.06 675.89 1121.51 675.89 1118.88V1104.86C675.89 1099.02 674.211 1094.06 670.853 1089.97C667.495 1085.88 660.341 1083.84 649.391 1083.84ZM629.901 1099.17H648.515C651.289 1099.17 653.333 1099.9 654.647 1101.36C656.107 1102.82 656.837 1105.01 656.837 1107.93V1114.06C656.837 1116.98 656.107 1119.17 654.647 1120.63C653.333 1122.09 651.289 1122.82 648.515 1122.82H629.901V1099.17ZM664.064 1141H607.125V1197.72H663.845C674.795 1197.72 681.949 1195.96 685.307 1192.46C688.665 1188.81 690.344 1183.99 690.344 1178.01V1163.99C690.344 1157.42 688.665 1151.95 685.307 1147.57C682.095 1143.19 675.014 1141 664.064 1141ZM629.901 1156.55H658.37C661.144 1156.55 663.188 1157.28 664.502 1158.74C665.962 1160.05 666.692 1162.17 666.692 1165.09V1173.63C666.692 1176.55 665.962 1178.74 664.502 1180.2C663.188 1181.66 661.144 1182.39 658.37 1182.39H629.901V1156.55Z" fill="black"/>
</g>
<defs>
<clipPath id="clip0_34_205">
<rect width="1080" height="1920" fill="white"/>
</clipPath>
</defs>
</svg>
