<svg width="1080" height="1920" viewBox="0 0 1080 1920" fill="none" xmlns="http://www.w3.org/2000/svg">
<g clip-path="url(#clip0_34_223)">
<path d="M883.636 1701.71L883.636 317.499L857.983 222.907C854.563 211.669 846.867 192.001 824.635 192.001L255.146 192.001C233.769 192.001 225.218 212.605 222.653 222.907L197 317.499L197 1706.4C197 1723.25 213.247 1727 232.914 1727H846.867C872.52 1727 883.636 1715.76 883.636 1701.71Z" fill="#282828" stroke="black" stroke-width="112.044"/>
<path d="M846.667 365.762L846.662 365.79L846.659 365.817C844.268 383.273 829.967 396.176 813.52 396.176L264.554 396.176C249.782 396.176 236.366 385.11 233.98 367.691L233.976 367.658L233.97 367.625L210.887 224.358C210.886 224.354 210.886 224.35 210.885 224.346C209.773 217.005 212.919 209.643 218.274 203.995C223.655 198.319 230.872 194.801 237.191 194.801L843.448 194.801C849.935 194.801 857.136 197.755 862.298 202.982C867.394 208.143 870.446 215.448 868.906 224.299L868.903 224.322L868.899 224.344L846.667 365.762ZM219.853 413.025L219.853 1675.06L199.803 1601.13L199.803 250.603L213.904 333.869C218.15 359.912 219.853 386.917 219.853 413.025ZM866.734 333.877C866.734 333.875 866.735 333.872 866.735 333.869L880.836 250.603L880.836 1601.13L860.786 1675.06L860.786 413.025C860.786 386.92 862.488 359.918 866.734 333.877ZM824.636 1724.2L256.003 1724.2C244.83 1724.2 234.861 1714.32 234.861 1701.71L234.861 439.248C234.861 424.629 245.813 413.016 258.568 413.016L822.071 413.016C834.826 413.016 845.778 424.629 845.778 439.248L845.778 1701.71C845.778 1714.39 836.6 1724.2 824.636 1724.2Z" fill="#FABD2D" stroke="black" stroke-width="5.60219"/>
<path d="M450.997 982.677H354.2C350.696 982.677 348.141 981.874 346.535 980.268C344.929 978.662 344.126 976.107 344.126 972.603V946.105C344.126 944.207 344.345 942.601 344.783 941.287C345.367 939.973 346.17 938.878 347.192 938.002L375.443 914.131C375.589 913.985 375.735 913.912 375.881 913.912C376.173 913.766 376.392 913.62 376.538 913.474V867.266H358.58C355.076 867.266 352.521 866.463 350.915 864.857C349.309 863.251 348.506 860.696 348.506 857.192V830.693C348.506 828.795 348.725 827.189 349.163 825.875C349.747 824.561 350.55 823.466 351.572 822.59L379.823 798.719C380.553 798.135 381.502 797.697 382.67 797.405C383.984 796.967 385.371 796.748 386.831 796.748H450.34C453.844 796.748 456.399 797.551 458.005 799.157C459.611 800.763 460.414 803.318 460.414 806.822V912.16H479.248C482.751 912.16 485.306 912.963 486.912 914.569C488.518 916.175 489.321 918.73 489.321 922.234V948.733C489.321 950.631 489.029 952.237 488.445 953.55C488.007 954.864 487.277 955.959 486.255 956.835L457.786 980.487C457.202 981.071 456.253 981.582 454.939 982.02C453.771 982.458 452.457 982.677 450.997 982.677ZM479.248 956.616C482.021 956.616 483.992 956.032 485.16 954.864C486.474 953.55 487.131 951.507 487.131 948.733V922.234C487.131 919.46 486.474 917.489 485.16 916.321C483.992 915.007 482.021 914.35 479.248 914.35H458.224V806.822C458.224 804.048 457.567 802.077 456.253 800.909C455.085 799.595 453.114 798.938 450.34 798.938H386.831C384.057 798.938 382.013 799.595 380.699 800.909C379.531 802.077 378.947 804.048 378.947 806.822V833.321C378.947 836.095 379.531 838.139 380.699 839.453C382.013 840.621 384.057 841.205 386.831 841.205H406.978V914.35H382.451C379.677 914.35 377.633 915.007 376.319 916.321C375.151 917.489 374.567 919.46 374.567 922.234V948.733C374.567 951.507 375.151 953.55 376.319 954.864C377.633 956.032 379.677 956.616 382.451 956.616H479.248ZM394.277 938.002V935.812H431.506V820.838H398.656V818.648H433.696V935.812H467.422V938.002H394.277ZM567.76 985.962C553.744 985.962 542.283 984.502 533.378 981.582C524.472 978.662 517.537 974.72 512.573 969.756C507.609 964.938 504.251 959.317 502.499 952.893C500.747 946.47 499.871 939.827 499.871 932.965V867.704C499.871 860.258 500.893 853.469 502.937 847.337C505.127 841.205 508.704 836.095 513.668 832.007L541.918 808.136C546.152 804.486 551.7 801.712 558.562 799.814C565.57 797.77 574.111 796.748 584.185 796.748H634.554C638.204 796.748 640.759 797.551 642.219 799.157C643.825 800.763 644.628 803.318 644.628 806.822V832.664C644.628 834.562 644.336 836.168 643.752 837.482C643.314 838.796 642.584 839.891 641.562 840.767L625.575 854.126C639.153 856.024 648.497 860.404 653.607 867.266C658.717 874.127 661.272 883.252 661.272 894.64V915.664C661.272 922.526 660.323 928.804 658.425 934.498C656.527 940.192 653.096 945.083 648.132 949.171L619.662 973.041C614.845 977.129 608.202 980.268 599.734 982.458C591.412 984.794 580.754 985.962 567.76 985.962ZM596.011 959.901C608.567 959.901 618.932 958.806 627.108 956.616C635.284 954.572 641.708 951.653 646.38 947.857C651.198 943.915 654.483 939.243 656.235 933.841C658.133 928.439 659.082 922.38 659.082 915.664V894.64C659.082 881.646 655.432 871.864 648.132 865.295C640.832 858.579 627.327 855.221 607.618 855.221C601.778 855.221 596.522 855.513 591.85 856.097C587.324 856.681 583.309 857.484 579.805 858.506V853.688C579.805 848.286 580.754 844.782 582.652 843.176C584.55 841.424 588.2 840.548 593.602 840.548H634.554C637.328 840.548 639.299 839.964 640.467 838.796C641.781 837.482 642.438 835.438 642.438 832.664V806.822C642.438 804.048 641.781 802.077 640.467 800.909C639.299 799.595 637.328 798.938 634.554 798.938H584.185C563.599 798.938 549.437 803.099 541.699 811.421C534.107 819.743 530.312 830.547 530.312 843.833V915.664C530.312 922.38 531.188 928.439 532.94 933.841C534.837 939.243 538.195 943.915 543.013 947.857C547.831 951.653 554.474 954.572 562.942 956.616C571.556 958.806 582.579 959.901 596.011 959.901ZM596.668 941.068C590.828 941.068 585.353 940.849 580.243 940.411C575.133 939.827 570.68 938.659 566.884 936.907C563.088 935.155 560.095 932.6 557.905 929.242C555.861 925.738 554.839 921.212 554.839 915.664V843.833C554.839 834.197 557.394 827.627 562.504 824.123C567.76 820.473 574.987 818.648 584.185 818.648H622.728V820.838H584.185C575.863 820.838 569.22 822.444 564.256 825.656C559.438 828.722 557.029 834.781 557.029 843.833V885.004C559.657 879.164 564.621 875.66 571.921 874.492C579.221 873.324 587.689 872.74 597.325 872.74C602.727 872.74 607.691 872.959 612.217 873.397C616.889 873.689 620.903 874.638 624.261 876.244C627.765 877.704 630.466 880.04 632.364 883.252C634.408 886.464 635.43 890.844 635.43 896.392V915.664C635.43 921.212 634.408 925.665 632.364 929.023C630.466 932.381 627.765 934.936 624.261 936.688C620.757 938.44 616.597 939.608 611.779 940.192C607.107 940.776 602.07 941.068 596.668 941.068ZM596.668 938.878C601.632 938.878 606.304 938.659 610.684 938.221C615.21 937.783 619.151 936.761 622.509 935.155C625.867 933.549 628.495 931.213 630.393 928.147C632.291 924.935 633.24 920.774 633.24 915.664V896.392C633.24 891.136 632.218 887.048 630.174 884.128C628.276 881.208 625.721 879.091 622.509 877.777C619.297 876.317 615.502 875.514 611.122 875.368C606.742 875.076 602.143 874.93 597.325 874.93C592.507 874.93 587.689 875.003 582.871 875.149C578.053 875.295 573.746 876.025 569.95 877.339C566.154 878.653 563.015 880.77 560.533 883.69C558.197 886.464 557.029 890.479 557.029 895.735V915.664C557.029 920.92 558.051 925.154 560.095 928.366C562.285 931.432 565.132 933.768 568.636 935.374C572.286 936.834 576.52 937.783 581.338 938.221C586.156 938.659 591.266 938.878 596.668 938.878ZM579.805 899.239C579.805 897.049 580.681 895.224 582.433 893.764C584.185 892.158 588.2 891.355 594.478 891.355C601.048 891.355 605.209 892.158 606.961 893.764C608.713 895.224 609.589 897.049 609.589 899.239V912.16C609.589 914.496 608.713 916.467 606.961 918.073C605.209 919.533 601.048 920.263 594.478 920.263C588.2 920.263 584.185 919.533 582.433 918.073C580.681 916.467 579.805 914.496 579.805 912.16V899.239ZM421.48 1199.91H419.29V1081.65H421.48V1139.9H469.003L494.187 1081.65H496.596L471.412 1139.9H480.39C489.296 1139.9 495.939 1141.58 500.319 1144.94C504.699 1148.3 506.889 1153.77 506.889 1161.36V1199.91H504.699V1161.36C504.699 1154.36 502.655 1149.39 498.567 1146.47C494.479 1143.55 488.42 1142.09 480.39 1142.09H421.48V1199.91ZM437.248 1219.62C440.022 1219.62 441.993 1219.03 443.161 1217.86C444.475 1216.55 445.132 1214.51 445.132 1211.73V1161.58H474.039C476.375 1161.58 478.127 1162.24 479.295 1163.55C480.463 1164.87 481.047 1166.69 481.047 1169.03V1211.73C481.047 1214.51 481.631 1216.55 482.799 1217.86C484.113 1219.03 486.157 1219.62 488.931 1219.62H522.657C525.431 1219.62 527.402 1219.03 528.57 1217.86C529.884 1216.55 530.541 1214.51 530.541 1211.73V1149.98C530.541 1141.22 528.059 1134.21 523.095 1128.95C518.277 1123.55 511.78 1120.63 503.604 1120.19L525.942 1069.17C526.964 1066.83 527.037 1065.08 526.161 1063.91C525.285 1062.6 523.606 1061.94 521.124 1061.94H487.398C484.624 1061.94 482.361 1062.52 480.609 1063.69C478.857 1064.71 477.47 1066.54 476.448 1069.17L453.892 1120.19H445.132V1069.82C445.132 1067.05 444.475 1065.08 443.161 1063.91C441.993 1062.6 440.022 1061.94 437.248 1061.94H403.303C400.529 1061.94 398.485 1062.6 397.171 1063.91C396.003 1065.08 395.419 1067.05 395.419 1069.82V1211.73C395.419 1214.51 396.003 1216.55 397.171 1217.86C398.485 1219.03 400.529 1219.62 403.303 1219.62H437.248ZM444.256 1219.84L415.786 1243.49C415.202 1244.07 414.253 1244.58 412.939 1245.02C411.771 1245.46 410.457 1245.68 408.997 1245.68H375.053C371.549 1245.68 368.994 1244.87 367.388 1243.27C365.782 1241.66 364.979 1239.11 364.979 1235.6V1093.69C364.979 1091.79 365.198 1090.19 365.636 1088.88C366.22 1087.56 367.023 1086.47 368.045 1085.59L396.295 1061.72C397.025 1061.14 397.974 1060.7 399.142 1060.41C400.456 1059.97 401.843 1059.75 403.303 1059.75H437.248C440.752 1059.75 443.307 1060.55 444.913 1062.16C446.519 1063.76 447.322 1066.32 447.322 1069.82V1089.75C447.76 1089.17 448.198 1088.58 448.636 1088C449.074 1087.27 449.585 1086.69 450.169 1086.25L478.419 1062.38C479.441 1061.5 480.682 1060.84 482.142 1060.41C483.748 1059.97 485.5 1059.75 487.398 1059.75H521.124C524.774 1059.75 527.183 1060.7 528.351 1062.6C529.519 1064.35 529.373 1066.83 527.913 1070.04L506.889 1118.22C514.773 1119.24 521.051 1122.6 525.723 1128.29C530.395 1133.99 532.731 1141.22 532.731 1149.98V1211.73C532.731 1213.63 532.439 1215.24 531.855 1216.55C531.417 1217.86 530.687 1218.96 529.665 1219.84L501.195 1243.49C500.611 1244.07 499.662 1244.58 498.348 1245.02C497.18 1245.46 495.866 1245.68 494.406 1245.68H460.681C457.177 1245.68 454.622 1244.87 453.016 1243.27C451.41 1241.66 450.607 1239.11 450.607 1235.6V1192.9C450.607 1191.44 450.315 1190.27 449.731 1189.39C449.147 1188.52 448.344 1188.01 447.322 1187.86V1211.73C447.322 1213.63 447.03 1215.24 446.446 1216.55C446.008 1217.86 445.278 1218.96 444.256 1219.84ZM560.259 1245.68C556.755 1245.68 554.2 1244.87 552.595 1243.27C550.989 1241.66 550.186 1239.11 550.186 1235.6V1093.69C550.186 1091.79 550.405 1090.19 550.843 1088.88C551.427 1087.56 552.23 1086.47 553.252 1085.59L581.502 1061.72C582.232 1061.14 583.181 1060.7 584.349 1060.41C585.663 1059.97 587.05 1059.75 588.51 1059.75H658.37C673.554 1059.75 684.723 1062.74 691.877 1068.73C699.031 1074.57 702.608 1083.47 702.608 1095.44V1105.96C702.608 1111.07 701.878 1115.45 700.418 1119.1C699.104 1122.75 697.06 1125.67 694.286 1127.86L693.629 1128.29C701.513 1130.05 707.426 1133.84 711.368 1139.68C715.31 1145.38 717.281 1153.33 717.281 1163.55V1183.7C717.281 1190.27 716.332 1195.96 714.434 1200.78C712.536 1205.45 709.689 1209.4 705.893 1212.61L677.642 1236.48C673.992 1239.55 669.393 1241.81 663.845 1243.27C658.297 1244.87 651.8 1245.68 644.354 1245.68H560.259ZM672.605 1219.62C687.059 1219.62 697.717 1216.7 704.579 1210.86C711.587 1205.02 715.091 1195.96 715.091 1183.7V1163.55C715.091 1152.9 712.828 1144.79 708.302 1139.24C703.776 1133.7 696.841 1130.48 687.497 1129.61C691.877 1127.71 695.089 1124.86 697.133 1121.07C699.323 1117.13 700.418 1112.09 700.418 1105.96V1095.44C700.418 1084.06 696.987 1075.66 690.125 1070.26C683.263 1064.71 672.678 1061.94 658.37 1061.94H588.51C585.736 1061.94 583.692 1062.6 582.378 1063.91C581.21 1065.08 580.626 1067.05 580.626 1069.82V1211.73C580.626 1214.51 581.21 1216.55 582.378 1217.86C583.692 1219.03 585.736 1219.62 588.51 1219.62H672.605ZM663.845 1199.91H604.935V1081.65H649.391C655.377 1081.65 660.268 1082.31 664.064 1083.62C667.86 1084.79 670.78 1086.47 672.824 1088.66C674.868 1090.7 676.255 1093.11 676.985 1095.88C677.715 1098.66 678.08 1101.65 678.08 1104.86V1118.88C678.08 1123.26 677.277 1127.27 675.671 1130.92C674.211 1134.57 670.342 1137.2 664.064 1138.81C670.05 1138.81 674.941 1139.46 678.737 1140.78C682.533 1141.95 685.453 1143.7 687.497 1146.03C689.541 1148.22 690.855 1150.85 691.439 1153.92C692.169 1156.98 692.534 1160.34 692.534 1163.99V1178.01C692.534 1181.22 692.169 1184.21 691.439 1186.99C690.709 1189.61 689.322 1191.88 687.278 1193.77C685.38 1195.67 682.533 1197.21 678.737 1198.37C674.941 1199.4 669.977 1199.91 663.845 1199.91ZM649.391 1083.84H607.125V1138.81H649.391C655.377 1138.81 660.122 1138.3 663.626 1137.27C667.13 1136.11 669.758 1134.65 671.51 1132.89C673.408 1131 674.576 1128.88 675.014 1126.54C675.598 1124.06 675.89 1121.51 675.89 1118.88V1104.86C675.89 1099.02 674.211 1094.06 670.853 1089.97C667.495 1085.88 660.341 1083.84 649.391 1083.84ZM629.901 1099.17H648.515C651.289 1099.17 653.333 1099.9 654.647 1101.36C656.107 1102.82 656.837 1105.01 656.837 1107.93V1114.06C656.837 1116.98 656.107 1119.17 654.647 1120.63C653.333 1122.09 651.289 1122.82 648.515 1122.82H629.901V1099.17ZM664.064 1141H607.125V1197.72H663.845C674.795 1197.72 681.949 1195.96 685.307 1192.46C688.665 1188.81 690.344 1183.99 690.344 1178.01V1163.99C690.344 1157.42 688.665 1151.95 685.307 1147.57C682.095 1143.19 675.014 1141 664.064 1141ZM629.901 1156.55H658.37C661.144 1156.55 663.188 1157.28 664.502 1158.74C665.962 1160.05 666.692 1162.17 666.692 1165.09V1173.63C666.692 1176.55 665.962 1178.74 664.502 1180.2C663.188 1181.66 661.144 1182.39 658.37 1182.39H629.901V1156.55Z" fill="black"/>
</g>
<defs>
<clipPath id="clip0_34_223">
<rect width="1080" height="1920" fill="white"/>
</clipPath>
</defs>
</svg>
