<svg width="1080" height="1920" viewBox="0 0 1080 1920" fill="none" xmlns="http://www.w3.org/2000/svg">
<g clip-path="url(#clip0_34_211)">
<path d="M883.636 1701.71L883.636 317.499L857.983 222.907C854.563 211.669 846.867 192.001 824.635 192.001L255.146 192.001C233.769 192.001 225.218 212.605 222.653 222.907L197 317.499L197 1706.4C197 1723.25 213.247 1727 232.914 1727H846.867C872.52 1727 883.636 1715.76 883.636 1701.71Z" fill="#282828" stroke="black" stroke-width="112.044"/>
<path d="M846.667 365.762L846.662 365.79L846.659 365.817C844.268 383.273 829.967 396.176 813.52 396.176L264.553 396.176C249.782 396.176 236.366 385.11 233.98 367.691L233.976 367.658L233.97 367.625L210.887 224.358C210.886 224.354 210.886 224.35 210.885 224.346C209.773 217.005 212.918 209.643 218.274 203.995C223.655 198.319 230.872 194.801 237.191 194.801L843.448 194.801C849.935 194.801 857.136 197.755 862.298 202.982C867.394 208.143 870.446 215.448 868.906 224.299L868.902 224.322L868.899 224.344L846.667 365.762ZM219.853 413.025L219.853 1675.06L199.802 1601.13L199.803 250.603L213.904 333.869C218.15 359.912 219.853 386.917 219.853 413.025ZM866.733 333.877C866.734 333.875 866.734 333.872 866.735 333.869L880.836 250.603L880.836 1601.13L860.786 1675.06L860.786 413.025C860.786 386.92 862.488 359.918 866.733 333.877ZM824.636 1724.2L256.002 1724.2C244.83 1724.2 234.861 1714.32 234.861 1701.71L234.861 439.248C234.861 424.629 245.813 413.016 258.568 413.016L822.071 413.016C834.826 413.016 845.778 424.629 845.778 439.248L845.777 1701.71C845.777 1714.39 836.6 1724.2 824.636 1724.2Z" fill="#FABD2D" stroke="black" stroke-width="5.60219"/>
<path d="M539.349 982.677H435.107C431.603 982.677 429.048 981.874 427.442 980.268C425.836 978.662 425.033 976.107 425.033 972.603V934.936C425.033 924.424 426.274 916.102 428.756 909.97C431.238 903.838 434.669 898.947 439.049 895.297L467.299 871.426C468.467 870.404 469.708 869.528 471.022 868.798C472.336 867.923 473.723 867.12 475.183 866.39H443.429C439.925 866.39 437.37 865.587 435.764 863.981C434.158 862.375 433.355 859.82 433.355 856.316V830.693C433.355 828.795 433.574 827.189 434.012 825.875C434.596 824.561 435.399 823.466 436.421 822.59L464.671 798.719C465.401 798.135 466.35 797.697 467.518 797.405C468.832 796.967 470.219 796.748 471.679 796.748H536.283C549.423 796.748 559.497 800.106 566.505 806.822C573.513 813.392 577.017 822.882 577.017 835.292V855.878C577.017 862.594 575.922 868.361 573.732 873.178C571.542 877.996 568.403 882.084 564.315 885.442L536.064 909.094C535.188 909.678 534.239 910.335 533.218 911.065C532.342 911.795 531.393 912.452 530.371 913.036H567.6C571.104 913.036 573.659 913.839 575.265 915.445C576.871 917.051 577.674 919.606 577.674 923.11V948.733C577.674 950.631 577.382 952.237 576.798 953.55C576.36 954.864 575.63 955.959 574.608 956.835L546.138 980.487C545.554 981.071 544.605 981.582 543.291 982.02C542.123 982.458 540.809 982.677 539.349 982.677ZM567.6 956.616C570.374 956.616 572.345 956.032 573.513 954.864C574.827 953.55 575.484 951.507 575.484 948.733V923.11C575.484 920.336 574.827 918.365 573.513 917.197C572.345 915.883 570.374 915.226 567.6 915.226H505.186V910.627C505.186 908.291 505.551 906.758 506.281 906.028C507.157 905.298 508.69 904.641 510.88 904.057L540.663 894.64C551.175 891.428 559.497 886.902 565.629 881.062C571.761 875.222 574.827 866.828 574.827 855.878V835.292C574.827 823.466 571.469 814.487 564.753 808.355C558.183 802.077 548.693 798.938 536.283 798.938H471.679C468.905 798.938 466.861 799.595 465.547 800.909C464.379 802.077 463.795 804.048 463.795 806.822V832.445C463.795 835.219 464.379 837.263 465.547 838.577C466.861 839.745 468.905 840.329 471.679 840.329H519.202C521.392 840.329 522.925 840.767 523.801 841.643C524.677 842.373 525.115 843.833 525.115 846.023C525.115 848.359 524.677 850.111 523.801 851.279C523.071 852.447 521.538 853.323 519.202 853.907L489.856 863.105C484.892 864.565 480.293 866.317 476.059 868.361C471.825 870.404 468.175 873.178 465.109 876.682C462.043 880.186 459.634 884.712 457.882 890.26C456.276 895.662 455.473 902.597 455.473 911.065V948.733C455.473 951.507 456.057 953.55 457.225 954.864C458.539 956.032 460.583 956.616 463.357 956.616H567.6ZM491.389 884.785L542.415 867.923C544.313 867.193 545.846 866.025 547.014 864.419C548.182 862.667 548.766 860.404 548.766 857.63V837.701C548.766 830.985 546.868 826.532 543.072 824.342C539.276 822.006 534.093 820.838 527.524 820.838H483.505V818.648H527.524C534.969 818.648 540.736 820.035 544.824 822.809C548.912 825.437 550.956 830.401 550.956 837.701V857.63C550.956 860.988 550.226 863.616 548.766 865.514C547.452 867.412 545.627 868.871 543.291 869.893L492.265 886.756C488.177 888.216 485.33 890.041 483.724 892.231C482.118 894.275 481.315 897.779 481.315 902.743V934.717H555.774V936.907H479.344V902.743C479.344 897.341 480.22 893.399 481.972 890.917C483.724 888.289 486.863 886.245 491.389 884.785ZM421.48 1199.91H419.29V1081.65H421.48V1139.9H469.003L494.187 1081.65H496.596L471.411 1139.9H480.39C489.296 1139.9 495.939 1141.58 500.319 1144.94C504.699 1148.3 506.889 1153.77 506.889 1161.36V1199.91H504.699V1161.36C504.699 1154.36 502.655 1149.39 498.567 1146.47C494.479 1143.55 488.42 1142.09 480.39 1142.09H421.48V1199.91ZM437.248 1219.62C440.022 1219.62 441.993 1219.03 443.161 1217.86C444.475 1216.55 445.132 1214.51 445.132 1211.73V1161.58H474.039C476.375 1161.58 478.127 1162.24 479.295 1163.55C480.463 1164.87 481.047 1166.69 481.047 1169.03V1211.73C481.047 1214.51 481.631 1216.55 482.799 1217.86C484.113 1219.03 486.157 1219.62 488.931 1219.62H522.657C525.431 1219.62 527.402 1219.03 528.57 1217.86C529.884 1216.55 530.541 1214.51 530.541 1211.73V1149.98C530.541 1141.22 528.059 1134.21 523.095 1128.95C518.277 1123.55 511.78 1120.63 503.604 1120.19L525.942 1069.17C526.964 1066.83 527.037 1065.08 526.161 1063.91C525.285 1062.6 523.606 1061.94 521.124 1061.94H487.398C484.624 1061.94 482.361 1062.52 480.609 1063.69C478.857 1064.71 477.47 1066.54 476.448 1069.17L453.892 1120.19H445.132V1069.82C445.132 1067.05 444.475 1065.08 443.161 1063.91C441.993 1062.6 440.022 1061.94 437.248 1061.94H403.303C400.529 1061.94 398.485 1062.6 397.171 1063.91C396.003 1065.08 395.419 1067.05 395.419 1069.82V1211.73C395.419 1214.51 396.003 1216.55 397.171 1217.86C398.485 1219.03 400.529 1219.62 403.303 1219.62H437.248ZM444.256 1219.84L415.786 1243.49C415.202 1244.07 414.253 1244.58 412.939 1245.02C411.771 1245.46 410.457 1245.68 408.997 1245.68H375.053C371.549 1245.68 368.994 1244.87 367.388 1243.27C365.782 1241.66 364.979 1239.11 364.979 1235.6V1093.69C364.979 1091.79 365.198 1090.19 365.636 1088.88C366.22 1087.56 367.023 1086.47 368.045 1085.59L396.295 1061.72C397.025 1061.14 397.974 1060.7 399.142 1060.41C400.456 1059.97 401.843 1059.75 403.303 1059.75H437.248C440.752 1059.75 443.307 1060.55 444.913 1062.16C446.519 1063.76 447.322 1066.32 447.322 1069.82V1089.75C447.76 1089.17 448.198 1088.58 448.636 1088C449.074 1087.27 449.585 1086.69 450.169 1086.25L478.419 1062.38C479.441 1061.5 480.682 1060.84 482.142 1060.41C483.748 1059.97 485.5 1059.75 487.398 1059.75H521.124C524.774 1059.75 527.183 1060.7 528.351 1062.6C529.519 1064.35 529.373 1066.83 527.913 1070.04L506.889 1118.22C514.773 1119.24 521.051 1122.6 525.723 1128.29C530.395 1133.99 532.731 1141.22 532.731 1149.98V1211.73C532.731 1213.63 532.439 1215.24 531.855 1216.55C531.417 1217.86 530.687 1218.96 529.665 1219.84L501.195 1243.49C500.611 1244.07 499.662 1244.58 498.348 1245.02C497.18 1245.46 495.866 1245.68 494.406 1245.68H460.681C457.177 1245.68 454.622 1244.87 453.016 1243.27C451.41 1241.66 450.607 1239.11 450.607 1235.6V1192.9C450.607 1191.44 450.315 1190.27 449.731 1189.39C449.147 1188.52 448.344 1188.01 447.322 1187.86V1211.73C447.322 1213.63 447.03 1215.24 446.446 1216.55C446.008 1217.86 445.278 1218.96 444.256 1219.84ZM560.259 1245.68C556.755 1245.68 554.2 1244.87 552.594 1243.27C550.989 1241.66 550.186 1239.11 550.186 1235.6V1093.69C550.186 1091.79 550.405 1090.19 550.843 1088.88C551.426 1087.56 552.229 1086.47 553.251 1085.59L581.502 1061.72C582.232 1061.14 583.181 1060.7 584.349 1060.41C585.663 1059.97 587.05 1059.75 588.51 1059.75H658.37C673.554 1059.75 684.723 1062.74 691.877 1068.73C699.031 1074.57 702.608 1083.47 702.608 1095.44V1105.96C702.608 1111.07 701.878 1115.45 700.418 1119.1C699.104 1122.75 697.06 1125.67 694.286 1127.86L693.629 1128.29C701.513 1130.05 707.426 1133.84 711.368 1139.68C715.31 1145.38 717.281 1153.33 717.281 1163.55V1183.7C717.281 1190.27 716.332 1195.96 714.434 1200.78C712.536 1205.45 709.689 1209.4 705.893 1212.61L677.642 1236.48C673.992 1239.55 669.393 1241.81 663.845 1243.27C658.297 1244.87 651.8 1245.68 644.354 1245.68H560.259ZM672.605 1219.62C687.059 1219.62 697.717 1216.7 704.579 1210.86C711.587 1205.02 715.091 1195.96 715.091 1183.7V1163.55C715.091 1152.9 712.828 1144.79 708.302 1139.24C703.776 1133.7 696.841 1130.48 687.497 1129.61C691.877 1127.71 695.089 1124.86 697.133 1121.07C699.323 1117.13 700.418 1112.09 700.418 1105.96V1095.44C700.418 1084.06 696.987 1075.66 690.125 1070.26C683.263 1064.71 672.678 1061.94 658.37 1061.94H588.51C585.736 1061.94 583.692 1062.6 582.378 1063.91C581.21 1065.08 580.626 1067.05 580.626 1069.82V1211.73C580.626 1214.51 581.21 1216.55 582.378 1217.86C583.692 1219.03 585.736 1219.62 588.51 1219.62H672.605ZM663.845 1199.91H604.935V1081.65H649.391C655.377 1081.65 660.268 1082.31 664.064 1083.62C667.86 1084.79 670.78 1086.47 672.824 1088.66C674.868 1090.7 676.255 1093.11 676.985 1095.88C677.715 1098.66 678.08 1101.65 678.08 1104.86V1118.88C678.08 1123.26 677.277 1127.27 675.671 1130.92C674.211 1134.57 670.342 1137.2 664.064 1138.81C670.05 1138.81 674.941 1139.46 678.737 1140.78C682.533 1141.95 685.453 1143.7 687.497 1146.03C689.541 1148.22 690.855 1150.85 691.439 1153.92C692.169 1156.98 692.534 1160.34 692.534 1163.99V1178.01C692.534 1181.22 692.169 1184.21 691.439 1186.99C690.709 1189.61 689.322 1191.88 687.278 1193.77C685.38 1195.67 682.533 1197.21 678.737 1198.37C674.941 1199.4 669.977 1199.91 663.845 1199.91ZM649.391 1083.84H607.125V1138.81H649.391C655.377 1138.81 660.122 1138.3 663.626 1137.27C667.13 1136.11 669.758 1134.65 671.51 1132.89C673.408 1131 674.576 1128.88 675.014 1126.54C675.598 1124.06 675.89 1121.51 675.89 1118.88V1104.86C675.89 1099.02 674.211 1094.06 670.853 1089.97C667.495 1085.88 660.341 1083.84 649.391 1083.84ZM629.901 1099.17H648.515C651.289 1099.17 653.333 1099.9 654.647 1101.36C656.107 1102.82 656.837 1105.01 656.837 1107.93V1114.06C656.837 1116.98 656.107 1119.17 654.647 1120.63C653.333 1122.09 651.289 1122.82 648.515 1122.82H629.901V1099.17ZM664.064 1141H607.125V1197.72H663.845C674.795 1197.72 681.949 1195.96 685.307 1192.46C688.665 1188.81 690.344 1183.99 690.344 1178.01V1163.99C690.344 1157.42 688.665 1151.95 685.307 1147.57C682.095 1143.19 675.014 1141 664.064 1141ZM629.901 1156.55H658.37C661.144 1156.55 663.188 1157.28 664.502 1158.74C665.962 1160.05 666.692 1162.17 666.692 1165.09V1173.63C666.692 1176.55 665.962 1178.74 664.502 1180.2C663.188 1181.66 661.144 1182.39 658.37 1182.39H629.901V1156.55Z" fill="black"/>
</g>
<defs>
<clipPath id="clip0_34_211">
<rect width="1080" height="1920" fill="white"/>
</clipPath>
</defs>
</svg>
