<svg width="1080" height="1920" viewBox="0 0 1080 1920" fill="none" xmlns="http://www.w3.org/2000/svg">
<g clip-path="url(#clip0_34_217)">
<path d="M883.636 1701.71L883.636 317.499L857.983 222.907C854.563 211.669 846.867 192.001 824.635 192.001L255.146 192.001C233.769 192.001 225.218 212.605 222.653 222.907L197 317.499L197 1706.4C197 1723.25 213.247 1727 232.914 1727H846.867C872.52 1727 883.636 1715.76 883.636 1701.71Z" fill="#282828" stroke="black" stroke-width="112.044"/>
<path d="M846.667 365.762L846.662 365.79L846.659 365.817C844.268 383.273 829.967 396.176 813.52 396.176L264.554 396.176C249.782 396.176 236.366 385.11 233.98 367.691L233.976 367.658L233.97 367.625L210.887 224.358C210.886 224.354 210.886 224.35 210.885 224.346C209.773 217.005 212.919 209.643 218.274 203.995C223.655 198.319 230.872 194.801 237.191 194.801L843.448 194.801C849.935 194.801 857.136 197.755 862.298 202.982C867.394 208.143 870.446 215.448 868.906 224.299L868.903 224.322L868.899 224.344L846.667 365.762ZM219.853 413.025L219.853 1675.06L199.803 1601.13L199.803 250.603L213.904 333.869C218.15 359.912 219.853 386.917 219.853 413.025ZM866.734 333.877C866.734 333.875 866.735 333.872 866.735 333.869L880.836 250.603L880.836 1601.13L860.786 1675.06L860.786 413.025C860.786 386.92 862.488 359.918 866.734 333.877ZM824.636 1724.2L256.003 1724.2C244.83 1724.2 234.861 1714.32 234.861 1701.71L234.861 439.248C234.861 424.629 245.813 413.016 258.568 413.016L822.071 413.016C834.826 413.016 845.778 424.629 845.778 439.248L845.778 1701.71C845.778 1714.39 836.6 1724.2 824.636 1724.2Z" fill="#FABD2D" stroke="black" stroke-width="5.60219"/>
<path d="M488.62 985.962C474.75 985.962 463.289 984.721 454.237 982.239C445.185 979.757 438.031 976.472 432.776 972.384C427.52 968.296 423.87 963.551 421.826 958.149C419.782 952.748 418.76 947.127 418.76 941.287V924.424C418.76 917.27 419.782 911.211 421.826 906.247C424.016 901.283 426.863 897.341 430.367 894.421L437.155 888.727C434.236 886.245 432.119 883.179 430.805 879.529C429.637 875.733 429.053 871.499 429.053 866.828V854.126C429.053 849.016 429.856 844.344 431.462 840.11C433.068 835.73 435.769 832.007 439.564 828.941L467.815 805.07C472.195 801.42 478.327 798.573 486.211 796.529C494.241 794.485 504.534 793.463 517.09 793.463C528.769 793.463 538.405 794.339 545.997 796.091C553.735 797.843 559.794 800.325 564.174 803.537C568.7 806.749 571.839 810.618 573.591 815.144C575.343 819.67 576.219 824.707 576.219 830.255V842.957C576.219 847.775 575.562 852.082 574.248 855.878C572.934 859.528 570.817 862.594 567.897 865.076L566.802 865.952C572.496 868.142 577.168 872.083 580.818 877.777C584.614 883.325 586.512 890.917 586.512 900.553V921.796C586.512 927.198 585.636 932.162 583.884 936.688C582.132 941.214 579.212 945.229 575.124 948.733L546.873 972.384C541.909 976.618 534.682 979.903 525.192 982.239C515.849 984.721 503.658 985.962 488.62 985.962ZM584.322 900.553C584.322 890.333 582.059 882.449 577.533 876.901C573.153 871.353 567.678 867.923 561.108 866.609C565.926 864.565 569.284 861.499 571.182 857.411C573.08 853.323 574.029 848.505 574.029 842.957V830.255C574.029 824.853 573.08 820.035 571.182 815.801C569.43 811.567 566.364 807.99 561.984 805.07C557.75 802.004 551.91 799.668 544.464 798.062C537.164 796.456 528.039 795.653 517.09 795.653C506.14 795.653 496.942 796.456 489.496 798.062C482.05 799.668 476.137 802.004 471.757 805.07C467.377 807.99 464.238 811.567 462.34 815.801C460.442 820.035 459.493 824.853 459.493 830.255V842.957C459.493 848.505 460.442 853.323 462.34 857.411C464.238 861.499 467.596 864.565 472.414 866.609C465.844 867.923 460.296 871.353 455.77 876.901C451.39 882.449 449.2 890.333 449.2 900.553V921.796C449.2 927.49 450.222 932.673 452.266 937.345C454.456 942.017 458.106 946.032 463.216 949.39C468.326 952.748 475.261 955.302 484.021 957.054C492.781 958.952 503.731 959.901 516.871 959.901C530.01 959.901 540.887 958.952 549.501 957.054C558.261 955.302 565.196 952.748 570.306 949.39C575.416 946.032 578.993 942.017 581.037 937.345C583.227 932.673 584.322 927.49 584.322 921.796V900.553ZM516.871 941.944C508.111 941.944 500.811 941.36 494.971 940.192C489.277 939.024 484.751 937.418 481.393 935.374C478.035 933.33 475.699 930.921 474.385 928.147C473.071 925.227 472.414 922.088 472.414 918.73V898.582C472.414 893.034 474.385 888.216 478.327 884.128C482.415 880.04 489.715 877.266 500.227 875.806C493.219 874.638 488.109 872.521 484.897 869.455C481.831 866.244 480.298 862.083 480.298 856.973V834.416C480.298 827.7 483.218 822.59 489.058 819.086C494.898 815.582 504.169 813.83 516.871 813.83C529.572 813.83 538.77 815.655 544.464 819.305C550.304 822.955 553.224 828.576 553.224 836.168V856.973C553.224 862.083 551.691 866.244 548.625 869.455C545.559 872.521 540.522 874.638 533.514 875.806C544.026 877.266 551.253 880.04 555.195 884.128C559.137 888.07 561.108 892.815 561.108 898.363V918.73C561.108 922.088 560.451 925.227 559.137 928.147C557.823 930.921 555.487 933.33 552.129 935.374C548.917 937.418 544.391 939.024 538.551 940.192C532.857 941.36 525.63 941.944 516.871 941.944ZM482.488 834.416V856.973C482.488 863.251 485.335 867.777 491.029 870.55C496.723 873.324 505.337 874.711 516.871 874.711C528.404 874.711 536.945 873.324 542.493 870.55C548.187 867.777 551.034 863.251 551.034 856.973V836.168C551.034 829.014 548.187 823.904 542.493 820.838C536.799 817.626 528.258 816.02 516.871 816.02C505.483 816.02 496.869 817.553 491.029 820.619C485.335 823.539 482.488 828.138 482.488 834.416ZM503.074 851.498V841.862C503.074 839.672 503.804 837.847 505.264 836.387C506.87 834.781 510.739 833.978 516.871 833.978C523.148 833.978 526.944 834.781 528.258 836.387C529.718 837.847 530.448 839.672 530.448 841.862V851.498C530.448 853.834 529.718 855.805 528.258 857.411C526.944 858.871 523.148 859.601 516.871 859.601C510.739 859.601 506.87 858.871 505.264 857.411C503.804 855.805 503.074 853.834 503.074 851.498ZM474.604 898.582V918.73C474.604 925.008 477.67 930.118 483.802 934.06C490.08 937.856 501.103 939.754 516.871 939.754C532.638 939.754 543.588 937.856 549.72 934.06C555.852 930.118 558.918 925.008 558.918 918.73V898.363C558.918 892.085 555.779 886.975 549.501 883.033C543.369 878.945 532.492 876.901 516.871 876.901C501.249 876.901 490.299 878.945 484.021 883.033C477.743 887.121 474.604 892.304 474.604 898.582ZM497.599 913.474V901.867C497.599 899.677 498.84 897.852 501.322 896.392C503.804 894.786 508.987 893.983 516.871 893.983C524.754 893.983 529.864 894.786 532.2 896.392C534.682 897.852 535.923 899.677 535.923 901.867V913.474C535.923 915.81 534.682 917.781 532.2 919.387C529.864 920.847 524.754 921.577 516.871 921.577C508.987 921.577 503.804 920.847 501.322 919.387C498.84 917.781 497.599 915.81 497.599 913.474ZM421.48 1199.91H419.29V1081.65H421.48V1139.9H469.003L494.187 1081.65H496.596L471.411 1139.9H480.39C489.296 1139.9 495.939 1141.58 500.319 1144.94C504.699 1148.3 506.889 1153.77 506.889 1161.36V1199.91H504.699V1161.36C504.699 1154.36 502.655 1149.39 498.567 1146.47C494.479 1143.55 488.42 1142.09 480.39 1142.09H421.48V1199.91ZM437.248 1219.62C440.022 1219.62 441.993 1219.03 443.161 1217.86C444.475 1216.55 445.132 1214.51 445.132 1211.73V1161.58H474.039C476.375 1161.58 478.127 1162.24 479.295 1163.55C480.463 1164.87 481.047 1166.69 481.047 1169.03V1211.73C481.047 1214.51 481.631 1216.55 482.799 1217.86C484.113 1219.03 486.157 1219.62 488.931 1219.62H522.657C525.431 1219.62 527.402 1219.03 528.57 1217.86C529.884 1216.55 530.541 1214.51 530.541 1211.73V1149.98C530.541 1141.22 528.059 1134.21 523.095 1128.95C518.277 1123.55 511.78 1120.63 503.604 1120.19L525.942 1069.17C526.964 1066.83 527.037 1065.08 526.161 1063.91C525.285 1062.6 523.606 1061.94 521.124 1061.94H487.398C484.624 1061.94 482.361 1062.52 480.609 1063.69C478.857 1064.71 477.47 1066.54 476.448 1069.17L453.892 1120.19H445.132V1069.82C445.132 1067.05 444.475 1065.08 443.161 1063.91C441.993 1062.6 440.022 1061.94 437.248 1061.94H403.303C400.529 1061.94 398.485 1062.6 397.171 1063.91C396.003 1065.08 395.419 1067.05 395.419 1069.82V1211.73C395.419 1214.51 396.003 1216.55 397.171 1217.86C398.485 1219.03 400.529 1219.62 403.303 1219.62H437.248ZM444.256 1219.84L415.786 1243.49C415.202 1244.07 414.253 1244.58 412.939 1245.02C411.771 1245.46 410.457 1245.68 408.997 1245.68H375.053C371.549 1245.68 368.994 1244.87 367.388 1243.27C365.782 1241.66 364.979 1239.11 364.979 1235.6V1093.69C364.979 1091.79 365.198 1090.19 365.636 1088.88C366.22 1087.56 367.023 1086.47 368.045 1085.59L396.295 1061.72C397.025 1061.14 397.974 1060.7 399.142 1060.41C400.456 1059.97 401.843 1059.75 403.303 1059.75H437.248C440.752 1059.75 443.307 1060.55 444.913 1062.16C446.519 1063.76 447.322 1066.32 447.322 1069.82V1089.75C447.76 1089.17 448.198 1088.58 448.636 1088C449.074 1087.27 449.585 1086.69 450.169 1086.25L478.419 1062.38C479.441 1061.5 480.682 1060.84 482.142 1060.41C483.748 1059.97 485.5 1059.75 487.398 1059.75H521.124C524.774 1059.75 527.183 1060.7 528.351 1062.6C529.519 1064.35 529.373 1066.83 527.913 1070.04L506.889 1118.22C514.773 1119.24 521.051 1122.6 525.723 1128.29C530.395 1133.99 532.731 1141.22 532.731 1149.98V1211.73C532.731 1213.63 532.439 1215.24 531.855 1216.55C531.417 1217.86 530.687 1218.96 529.665 1219.84L501.195 1243.49C500.611 1244.07 499.662 1244.58 498.348 1245.02C497.18 1245.46 495.866 1245.68 494.406 1245.68H460.681C457.177 1245.68 454.622 1244.87 453.016 1243.27C451.41 1241.66 450.607 1239.11 450.607 1235.6V1192.9C450.607 1191.44 450.315 1190.27 449.731 1189.39C449.147 1188.52 448.344 1188.01 447.322 1187.86V1211.73C447.322 1213.63 447.03 1215.24 446.446 1216.55C446.008 1217.86 445.278 1218.96 444.256 1219.84ZM560.259 1245.68C556.755 1245.68 554.2 1244.87 552.594 1243.27C550.989 1241.66 550.186 1239.11 550.186 1235.6V1093.69C550.186 1091.79 550.405 1090.19 550.843 1088.88C551.426 1087.56 552.229 1086.47 553.251 1085.59L581.502 1061.72C582.232 1061.14 583.181 1060.7 584.349 1060.41C585.663 1059.97 587.05 1059.75 588.51 1059.75H658.37C673.554 1059.75 684.723 1062.74 691.877 1068.73C699.031 1074.57 702.608 1083.47 702.608 1095.44V1105.96C702.608 1111.07 701.878 1115.45 700.418 1119.1C699.104 1122.75 697.06 1125.67 694.286 1127.86L693.629 1128.29C701.513 1130.05 707.426 1133.84 711.368 1139.68C715.31 1145.38 717.281 1153.33 717.281 1163.55V1183.7C717.281 1190.27 716.332 1195.96 714.434 1200.78C712.536 1205.45 709.689 1209.4 705.893 1212.61L677.642 1236.48C673.992 1239.55 669.393 1241.81 663.845 1243.27C658.297 1244.87 651.8 1245.68 644.354 1245.68H560.259ZM672.605 1219.62C687.059 1219.62 697.717 1216.7 704.579 1210.86C711.587 1205.02 715.091 1195.96 715.091 1183.7V1163.55C715.091 1152.9 712.828 1144.79 708.302 1139.24C703.776 1133.7 696.841 1130.48 687.497 1129.61C691.877 1127.71 695.089 1124.86 697.133 1121.07C699.323 1117.13 700.418 1112.09 700.418 1105.96V1095.44C700.418 1084.06 696.987 1075.66 690.125 1070.26C683.263 1064.71 672.678 1061.94 658.37 1061.94H588.51C585.736 1061.94 583.692 1062.6 582.378 1063.91C581.21 1065.08 580.626 1067.05 580.626 1069.82V1211.73C580.626 1214.51 581.21 1216.55 582.378 1217.86C583.692 1219.03 585.736 1219.62 588.51 1219.62H672.605ZM663.845 1199.91H604.935V1081.65H649.391C655.377 1081.65 660.268 1082.31 664.064 1083.62C667.86 1084.79 670.78 1086.47 672.824 1088.66C674.868 1090.7 676.255 1093.11 676.985 1095.88C677.715 1098.66 678.08 1101.65 678.08 1104.86V1118.88C678.08 1123.26 677.277 1127.27 675.671 1130.92C674.211 1134.57 670.342 1137.2 664.064 1138.81C670.05 1138.81 674.941 1139.46 678.737 1140.78C682.533 1141.95 685.453 1143.7 687.497 1146.03C689.541 1148.22 690.855 1150.85 691.439 1153.92C692.169 1156.98 692.534 1160.34 692.534 1163.99V1178.01C692.534 1181.22 692.169 1184.21 691.439 1186.99C690.709 1189.61 689.322 1191.88 687.278 1193.77C685.38 1195.67 682.533 1197.21 678.737 1198.37C674.941 1199.4 669.977 1199.91 663.845 1199.91ZM649.391 1083.84H607.125V1138.81H649.391C655.377 1138.81 660.122 1138.3 663.626 1137.27C667.13 1136.11 669.758 1134.65 671.51 1132.89C673.408 1131 674.576 1128.88 675.014 1126.54C675.598 1124.06 675.89 1121.51 675.89 1118.88V1104.86C675.89 1099.02 674.211 1094.06 670.853 1089.97C667.495 1085.88 660.341 1083.84 649.391 1083.84ZM629.901 1099.17H648.515C651.289 1099.17 653.333 1099.9 654.647 1101.36C656.107 1102.82 656.837 1105.01 656.837 1107.93V1114.06C656.837 1116.98 656.107 1119.17 654.647 1120.63C653.333 1122.09 651.289 1122.82 648.515 1122.82H629.901V1099.17ZM664.064 1141H607.125V1197.72H663.845C674.795 1197.72 681.949 1195.96 685.307 1192.46C688.665 1188.81 690.344 1183.99 690.344 1178.01V1163.99C690.344 1157.42 688.665 1151.95 685.307 1147.57C682.095 1143.19 675.014 1141 664.064 1141ZM629.901 1156.55H658.37C661.144 1156.55 663.188 1157.28 664.502 1158.74C665.962 1160.05 666.692 1162.17 666.692 1165.09V1173.63C666.692 1176.55 665.962 1178.74 664.502 1180.2C663.188 1181.66 661.144 1182.39 658.37 1182.39H629.901V1156.55Z" fill="black"/>
</g>
<defs>
<clipPath id="clip0_34_217">
<rect width="1080" height="1920" fill="white"/>
</clipPath>
</defs>
</svg>
